<svg width="97" height="24" viewBox="0 0 97 24" fill="none" xmlns="http://www.w3.org/2000/svg">
<path d="M15.848 19.032C15.848 20.5253 15.368 21.6347 14.408 22.36C13.4693 23.0853 12.1467 23.448 10.44 23.448C7.70933 23.448 5.69333 22.5413 4.392 20.728C3.112 18.9147 2.472 16.5467 2.472 13.624C2.472 13.1547 2.49333 12.472 2.536 11.576H0.744C0.573333 11.576 0.488 11.512 0.488 11.384C0.488 11.0213 0.669333 10.584 1.032 10.072C1.39467 9.56 1.78933 9.304 2.216 9.304H2.824C3.10133 7.768 3.54933 6.41333 4.168 5.24C4.808 4.06667 5.46933 3.16 6.152 2.52C6.856 1.88 7.624 1.368 8.456 0.983999C9.77867 0.343999 11.1653 0.0239983 12.616 0.0239983C14.0667 0.0239983 14.9733 0.258665 15.336 0.727999C15.5067 0.962665 15.592 1.4 15.592 2.04C15.592 2.65867 15.5173 2.968 15.368 2.968C15.3467 2.968 15.2507 2.92533 15.08 2.84C14.5253 2.584 13.832 2.456 13 2.456C11.1867 2.456 9.768 3.096 8.744 4.376C7.74133 5.656 7.06933 7.29867 6.728 9.304C8.34933 9.28267 10.5467 9.272 13.32 9.272C13.5333 9.272 13.64 9.34667 13.64 9.496C13.64 9.83733 13.4693 10.2747 13.128 10.808C12.7867 11.32 12.4027 11.576 11.976 11.576H6.472C6.45067 11.832 6.44 12.3973 6.44 13.272C6.44 14.1253 6.58933 15.032 6.888 15.992C7.208 16.9307 7.784 17.7307 8.616 18.392C9.46933 19.0533 10.568 19.384 11.912 19.384C13.256 19.384 14.3867 19.0853 15.304 18.488C15.4107 18.4027 15.5067 18.36 15.592 18.36C15.7627 18.36 15.848 18.584 15.848 19.032ZM24.1288 9.176C25.0461 8.728 25.9528 8.504 26.8488 8.504C27.7448 8.504 28.1928 9.432 28.1928 11.288C28.1928 12.6533 27.9368 14.04 27.4248 15.448C26.9341 16.856 26.3154 18.0933 25.5688 19.16C24.0328 21.4 22.6461 22.8933 21.4088 23.64C21.1101 23.8107 20.8861 23.896 20.7368 23.896C20.5874 23.896 20.4274 23.736 20.2568 23.416C20.1074 23.096 19.8621 22.392 19.5208 21.304C19.2008 20.216 18.9341 19.2453 18.7208 18.392L18.4328 17.08C18.0061 15.2027 17.5901 13.7093 17.1848 12.6C16.7794 11.4693 16.4808 10.8187 16.2888 10.648L15.9688 10.36C15.7554 10.2533 15.6487 10.1253 15.6487 9.976L15.8087 9.688C16.0861 9.432 16.5448 9.176 17.1848 8.92C17.8461 8.64267 18.5714 8.504 19.3608 8.504C19.7234 8.504 19.9474 8.70667 20.0328 9.112C20.3528 10.0933 20.6301 11.2453 20.8648 12.568C21.0994 13.8907 21.4088 15.384 21.7928 17.048C22.1981 18.712 22.5288 19.5547 22.7848 19.576C22.9128 19.576 23.0514 19.48 23.2008 19.288C23.3714 19.096 23.5634 18.84 23.7768 18.52C24.0114 18.2 24.2888 17.5813 24.6088 16.664C24.9501 15.7467 25.1208 14.968 25.1208 14.328C25.1208 13.6667 25.0888 13.1653 25.0248 12.824C24.9821 12.4613 24.8008 12.0453 24.4808 11.576C24.1608 11.1067 23.7981 10.84 23.3928 10.776C22.9874 10.6907 22.7848 10.552 22.7848 10.36C22.7848 10.0187 23.2328 9.624 24.1288 9.176ZM32.3438 14.872L32.3758 15.672C32.3758 15.8 32.4611 15.864 32.6318 15.864C33.3144 15.8 33.9118 15.6293 34.4238 15.352C34.9358 15.0533 35.3198 14.7227 35.5758 14.36C36.0878 13.5707 36.3651 12.888 36.4078 12.312L36.4398 11.928C36.4398 10.776 35.9811 10.2 35.0638 10.2C34.3811 10.2 33.8264 10.4987 33.3998 11.096C32.6958 12.0347 32.3438 13.2933 32.3438 14.872ZM39.3198 19.128C39.3198 19.9387 39.1491 20.6533 38.8078 21.272C38.4878 21.8693 38.1144 22.3173 37.6878 22.616C37.2824 22.8933 36.8024 23.1173 36.2478 23.288C35.5438 23.5013 34.8718 23.608 34.2318 23.608C32.4398 23.608 31.1171 22.936 30.2638 21.592C29.4104 20.248 28.9838 18.5413 28.9838 16.472C28.9838 14.3813 29.5064 12.5253 30.5518 10.904C31.6184 9.28267 33.2078 8.472 35.3198 8.472C37.2398 8.472 38.5411 9.144 39.2238 10.488C39.5011 11 39.6398 11.4907 39.6398 11.96C39.6398 12.408 39.6184 12.7707 39.5758 13.048C39.5331 13.304 39.3838 13.6987 39.1278 14.232C38.8718 14.7653 38.5304 15.2453 38.1038 15.672C37.6771 16.0987 37.0051 16.504 36.0878 16.888C35.1704 17.272 34.0931 17.528 32.8558 17.656C32.6851 17.656 32.5998 17.7307 32.5998 17.88C32.5998 18.072 32.6638 18.36 32.7918 18.744C32.9411 19.1067 33.1011 19.416 33.2718 19.672C33.7411 20.2693 34.4344 20.568 35.3518 20.568C36.2691 20.568 37.0478 20.2693 37.6878 19.672C38.0291 19.352 38.3064 18.9573 38.5198 18.488C38.6051 18.3173 38.7118 18.232 38.8398 18.232C38.9891 18.232 39.1064 18.3493 39.1918 18.584C39.2771 18.8187 39.3198 19 39.3198 19.128ZM41.085 23.224C41.469 20.92 41.661 18.1573 41.661 14.936C41.661 11.7147 41.565 9.624 41.373 8.664C41.373 8.38667 41.693 8.248 42.333 8.248C43.3143 8.248 43.965 8.62133 44.285 9.368C44.3063 9.432 44.3597 9.464 44.445 9.464C44.5303 9.464 44.5943 9.44267 44.637 9.4C45.2983 8.71733 46.3223 8.376 47.709 8.376C49.0957 8.376 50.1943 8.728 51.005 9.432C51.8157 10.136 52.221 11.16 52.221 12.504C52.221 13.3147 52.1463 14.4667 51.997 15.96C51.869 17.4533 51.805 18.5627 51.805 19.288C51.805 21.016 52.093 22.264 52.669 23.032C52.7543 23.1387 52.797 23.2453 52.797 23.352C52.797 23.6293 52.4983 23.768 51.901 23.768C49.2557 23.768 47.933 22.5947 47.933 20.248C47.933 19.352 48.1357 18.104 48.541 16.504C48.9463 14.904 49.149 13.688 49.149 12.856C49.149 11.1493 48.445 10.296 47.037 10.296C46.3543 10.296 45.8317 10.4987 45.469 10.904C45.1277 11.3093 44.9357 11.7787 44.893 12.312C44.8503 12.824 44.829 13.8053 44.829 15.256C44.829 17.4747 44.9037 19.4053 45.053 21.048L45.117 21.752C45.117 22.3493 44.7223 22.808 43.933 23.128C43.165 23.4693 42.493 23.64 41.917 23.64C41.3623 23.64 41.085 23.5013 41.085 23.224ZM53.3863 10.52L53.4823 9.24C53.5036 9.048 53.6529 8.952 53.9303 8.952H55.0503L54.9223 6.392V6.264C54.9223 5.77333 55.2956 5.304 56.0423 4.856C56.7889 4.408 57.4716 4.184 58.0903 4.184C58.2823 4.184 58.3783 4.26933 58.3783 4.44V4.472C58.2929 5.048 58.2076 6.53067 58.1223 8.92C59.0609 8.92 59.6583 8.89867 59.9143 8.856C60.1703 8.81333 60.3089 8.792 60.3303 8.792C60.4796 8.792 60.5543 8.92 60.5543 9.176C60.5543 9.432 60.4369 9.76267 60.2023 10.168C59.9676 10.552 59.7116 10.7547 59.4343 10.776H58.0903C58.0689 11.5013 58.0583 12.728 58.0583 14.456C58.0583 16.1627 58.0689 17.5707 58.0903 18.68C58.1329 19.7893 58.1756 20.632 58.2183 21.208C58.2609 21.7627 58.3036 22.2107 58.3463 22.552C58.4103 22.8933 58.4529 23.1387 58.4743 23.288C58.5169 23.4373 58.5383 23.5333 58.5383 23.576C58.5383 23.7893 58.3996 23.9067 58.1223 23.928C57.2903 23.928 56.4583 23.8107 55.6263 23.576C54.8156 23.3413 54.4103 22.936 54.4103 22.36C54.8583 18.776 55.0823 14.9253 55.0823 10.808C54.5063 10.808 54.0689 10.8293 53.7703 10.872H53.7383C53.5463 10.872 53.4289 10.7547 53.3863 10.52ZM67.4865 11.96L66.7505 12.152C66.3665 12.152 66.1745 11.8 66.1745 11.096C66.1745 10.3707 66.4305 9.79467 66.9425 9.368C67.4758 8.92 68.1478 8.696 68.9585 8.696C69.4065 8.696 69.8865 8.83467 70.3985 9.112C70.9105 9.368 71.3372 9.69867 71.6785 10.104C72.0198 10.488 72.3185 11.1067 72.5745 11.96C72.8518 12.792 72.9905 13.7733 72.9905 14.904C72.9905 17.5067 72.2865 19.6187 70.8785 21.24C69.4918 22.8613 67.4758 23.672 64.8305 23.672C64.0625 23.672 63.3052 23.5973 62.5585 23.448L62.2385 23.384C61.9612 23.2987 61.8012 23.1493 61.7585 22.936C61.6945 22.488 61.6625 21.432 61.6625 19.768L61.8545 9.4C61.8545 7.8 61.8118 6.57333 61.7265 5.72L61.6625 5.272C61.6198 4.67467 61.4918 4.16267 61.2785 3.736C61.0865 3.30933 60.8945 3.032 60.7025 2.904L60.4465 2.744C60.2972 2.65867 60.2225 2.56267 60.2225 2.456C60.2225 2.136 60.7558 1.76267 61.8225 1.336C62.8892 0.887999 63.6678 0.664 64.1585 0.664C64.6492 0.664 64.9052 0.791999 64.9265 1.048C65.0758 2.34933 65.1505 4.20533 65.1505 6.616L64.9905 14.296C64.9905 17.6453 65.0865 19.96 65.2785 21.24C65.2998 21.5387 65.6305 21.688 66.2705 21.688C66.9318 21.688 67.4972 21.5067 67.9665 21.144C68.4358 20.7813 68.7878 20.3013 69.0225 19.704C69.4492 18.616 69.6625 17.4107 69.6625 16.088C69.6625 15.4693 69.5772 14.7973 69.4065 14.072C69.1078 12.664 68.4678 11.96 67.4865 11.96ZM84.1888 14.424L84.3168 15.544C84.3168 15.9493 83.9328 16.152 83.1648 16.152C81.6074 16.152 80.8288 15.5653 80.8288 14.392C80.8288 14.1147 80.9034 13.7307 81.0528 13.24C81.2021 12.7493 81.2768 12.3227 81.2768 11.96C81.2768 11.5973 81.1701 11.288 80.9568 11.032C80.7434 10.7547 80.4341 10.616 80.0288 10.616C79.6234 10.616 79.2714 10.7653 78.9728 11.064C78.6954 11.3413 78.5248 11.6293 78.4608 11.928L78.3328 12.376C78.2048 13.0373 78.1408 14.1467 78.1408 15.704C78.1408 17.24 78.1621 18.456 78.2048 19.352C78.2474 20.2267 78.2901 20.8347 78.3328 21.176C78.3754 21.496 78.3968 21.688 78.3968 21.752C78.3968 22.2853 78.0661 22.712 77.4048 23.032C76.7434 23.3733 76.0821 23.544 75.4208 23.544C74.7594 23.544 74.4288 23.4053 74.4288 23.128L74.5888 22.136C74.8874 20.28 75.0368 17.8587 75.0368 14.872C75.0368 11.8853 74.9301 9.85867 74.7168 8.792C74.7168 8.536 74.9408 8.408 75.3888 8.408C76.5408 8.408 77.3088 8.80267 77.6927 9.592C77.7141 9.67733 77.7461 9.72 77.7888 9.72C77.8528 9.72 78.0021 9.624 78.2368 9.432C78.9408 8.856 79.7728 8.568 80.7328 8.568C81.3301 8.568 81.9274 8.68533 82.5248 8.92C83.7408 9.41067 84.3488 10.4347 84.3488 11.992L84.1888 14.424ZM88.1273 10.936C87.5726 10.9573 87.1673 10.9787 86.9113 11C86.6766 11 86.5593 10.936 86.5593 10.808C86.5593 10.68 86.6233 10.552 86.7513 10.424C88.1166 9.16533 90.4206 8.536 93.6633 8.536C94.7726 8.536 95.6473 8.632 96.2873 8.824L96.6073 8.92C96.8633 9.02667 96.9913 9.144 96.9913 9.272C96.9913 9.37867 96.9166 9.464 96.7673 9.528C96.1913 9.69867 95.6366 9.976 95.1033 10.36C94.5699 10.7227 94.3033 10.9787 94.3033 11.128L94.4953 11.352C95.1779 11.736 95.7006 12.344 96.0633 13.176C96.4473 14.008 96.6606 14.744 96.7033 15.384L96.7673 16.376C96.7673 18.488 96.1806 20.2267 95.0073 21.592C93.8339 22.9573 92.2339 23.64 90.2073 23.64C89.1833 23.64 88.2979 23.4587 87.5513 23.096C86.8046 22.7333 86.2499 22.328 85.8873 21.88C85.5459 21.4107 85.2686 20.888 85.0553 20.312C84.7993 19.5227 84.6713 18.712 84.6713 17.88C84.6713 17.0267 84.8099 16.1733 85.0872 15.32C85.3859 14.4667 85.7166 13.8373 86.0793 13.432C86.4633 13.0267 86.8899 12.696 87.3593 12.44C87.9566 12.12 88.4366 11.96 88.7993 11.96C89.1619 11.96 89.3433 12.0347 89.3433 12.184L89.1513 12.504C88.6819 13.0587 88.3406 13.784 88.1273 14.68C87.9353 15.576 87.8393 16.376 87.8393 17.08C87.8393 17.7627 87.9246 18.4453 88.0953 19.128C88.2659 19.8107 88.4579 20.3227 88.6713 20.664C88.8846 20.984 89.1299 21.2293 89.4073 21.4C89.8126 21.656 90.2393 21.784 90.6873 21.784C91.1353 21.784 91.5726 21.6133 91.9993 21.272C92.4259 20.9093 92.7353 20.44 92.9273 19.864C93.3113 18.7973 93.5033 17.6987 93.5033 16.568C93.5033 14.776 93.0446 13.3893 92.1273 12.408C91.2313 11.4267 89.8979 10.936 88.1273 10.936Z" fill="#D53256" fill-opacity="0.87"/>
</svg>
