<svg width="16" height="24" viewBox="0 0 16 24" fill="none" xmlns="http://www.w3.org/2000/svg">
<path d="M15.848 19.032C15.848 20.5253 15.368 21.6347 14.408 22.36C13.4693 23.0853 12.1467 23.448 10.44 23.448C7.70933 23.448 5.69333 22.5413 4.392 20.728C3.112 18.9147 2.472 16.5467 2.472 13.624C2.472 13.1547 2.49333 12.472 2.536 11.576H0.744C0.573333 11.576 0.488 11.512 0.488 11.384C0.488 11.0213 0.669333 10.584 1.032 10.072C1.39467 9.56 1.78933 9.304 2.216 9.304H2.824C3.10133 7.768 3.54933 6.41333 4.168 5.24C4.808 4.06667 5.46933 3.16 6.152 2.52C6.856 1.88 7.624 1.368 8.456 0.983999C9.77867 0.343999 11.1653 0.0239983 12.616 0.0239983C14.0667 0.0239983 14.9733 0.258665 15.336 0.727999C15.5067 0.962665 15.592 1.4 15.592 2.04C15.592 2.65867 15.5173 2.968 15.368 2.968C15.3467 2.968 15.2507 2.92533 15.08 2.84C14.5253 2.584 13.832 2.456 13 2.456C11.1867 2.456 9.768 3.096 8.744 4.376C7.74133 5.656 7.06933 7.29867 6.728 9.304C8.34933 9.28267 10.5467 9.272 13.32 9.272C13.5333 9.272 13.64 9.34667 13.64 9.496C13.64 9.83733 13.4693 10.2747 13.128 10.808C12.7867 11.32 12.4027 11.576 11.976 11.576H6.472C6.45067 11.832 6.44 12.3973 6.44 13.272C6.44 14.1253 6.58933 15.032 6.888 15.992C7.208 16.9307 7.784 17.7307 8.616 18.392C9.46933 19.0533 10.568 19.384 11.912 19.384C13.256 19.384 14.3867 19.0853 15.304 18.488C15.4107 18.4027 15.5067 18.36 15.592 18.36C15.7627 18.36 15.848 18.584 15.848 19.032Z" fill="#D53256" fill-opacity="0.87"/>
</svg>
